<?xml version="1.0" encoding="UTF-8"?>
<svg xmlns="http://www.w3.org/2000/svg" width="960" height="540" viewBox="0 0 960 540" role="img">
  <defs>
    <linearGradient id="bg" x1="0%" y1="0%" x2="100%" y2="100%">
      <stop offset="0%" stop-color="#f8fafc"/>
      <stop offset="100%" stop-color="#ffedd5"/>
    </linearGradient>
  </defs>
  <rect width="960" height="540" fill="url(#bg)"/>
  <rect x="24" y="24" width="912" height="492" rx="12" fill="#fff" stroke="#cbd5e1" stroke-width="2"/>
  <rect x="24" y="24" width="912" height="44" rx="12" fill="#d97706"/>
  <rect x="24" y="56" width="912" height="12" fill="#d97706"/>
  <circle cx="52" cy="46" r="7" fill="#fca5a5"/>
  <circle cx="74" cy="46" r="7" fill="#fde047"/>
  <circle cx="96" cy="46" r="7" fill="#86efac"/>
  <text x="480" y="50" text-anchor="middle" font-family="Segoe UI, system-ui, sans-serif" font-size="13" fill="#fffbeb" font-weight="600">RG Ambiental À Captura de treinamento</text>
  <text x="480" y="110" text-anchor="middle" font-family="Segoe UI, system-ui, sans-serif" font-size="20" fill="#334155" font-weight="700">Lanþamento de pesagem</text>
  <rect x="80" y="150" width="240" height="48" rx="8" fill="#fffbeb" stroke="#fed7aa"/>
  <text x="96" y="180" font-family="Segoe UI, system-ui, sans-serif" font-size="13" fill="#92400e" font-weight="600">Tara (kg)</text>
  <rect x="360" y="150" width="240" height="48" rx="8" fill="#fffbeb" stroke="#fed7aa"/>
  <text x="376" y="180" font-family="Segoe UI, system-ui, sans-serif" font-size="13" fill="#92400e" font-weight="600">Bruto (kg)</text>
  <rect x="640" y="150" width="240" height="48" rx="8" fill="#d97706" opacity="0.15" stroke="#d97706"/>
  <text x="656" y="180" font-family="Segoe UI, system-ui, sans-serif" font-size="13" fill="#92400e" font-weight="600">Peso lÝquido</text>
  <rect x="80" y="230" width="380" height="36" rx="6" fill="#f1f5f9" stroke="#cbd5e1"/>
  <text x="96" y="253" font-family="Segoe UI, system-ui, sans-serif" font-size="12" fill="#64748b">MTR vinculada</text>
  <rect x="480" y="230" width="400" height="36" rx="6" fill="#f1f5f9" stroke="#cbd5e1"/>
  <text x="496" y="253" font-family="Segoe UI, system-ui, sans-serif" font-size="12" fill="#64748b">Ticket / comprovante</text>
  <rect x="80" y="290" width="800" height="100" rx="8" fill="#f8fafc" stroke="#e2e8f0"/>
  <text x="96" y="320" font-family="Segoe UI, system-ui, sans-serif" font-size="12" fill="#64748b">Status conferÛncia À Etapa do fluxo</text>
  <rect x="720" y="410" width="160" height="40" rx="8" fill="#d97706"/>
  <text x="800" y="435" text-anchor="middle" font-family="Segoe UI, system-ui, sans-serif" font-size="13" fill="#fff" font-weight="600">Gerar ticket</text>
  <text x="480" y="500" text-anchor="middle" font-family="Segoe UI, system-ui, sans-serif" font-size="11" fill="#94a3b8">Substituir por screenshot real em public/assets/treinamento/</text>
</svg>
