<?xml version="1.0" encoding="UTF-8"?>
<svg xmlns="http://www.w3.org/2000/svg" width="960" height="540" viewBox="0 0 960 540" role="img">
  <defs>
    <linearGradient id="bg" x1="0%" y1="0%" x2="100%" y2="100%">
      <stop offset="0%" stop-color="#f8fafc"/>
      <stop offset="100%" stop-color="#d1fae5"/>
    </linearGradient>
  </defs>
  <rect width="960" height="540" fill="url(#bg)"/>
  <rect x="24" y="24" width="912" height="492" rx="12" fill="#fff" stroke="#cbd5e1" stroke-width="2"/>
  <rect x="24" y="24" width="912" height="44" rx="12" fill="#059669"/>
  <rect x="24" y="56" width="912" height="12" fill="#059669"/>
  <circle cx="52" cy="46" r="7" fill="#fca5a5"/>
  <circle cx="74" cy="46" r="7" fill="#fde047"/>
  <circle cx="96" cy="46" r="7" fill="#86efac"/>
  <text x="480" y="50" text-anchor="middle" font-family="Segoe UI, system-ui, sans-serif" font-size="13" fill="#ecfdf5" font-weight="600">RG Ambiental · Captura de treinamento</text>
  <rect x="48" y="88" width="140" height="32" rx="6" fill="#059669" opacity="0.2"/>
  <rect x="200" y="88" width="140" height="32" rx="6" fill="#f1f5f9"/>
  <rect x="352" y="88" width="140" height="32" rx="6" fill="#f1f5f9"/>
  <rect x="504" y="88" width="140" height="32" rx="6" fill="#f1f5f9"/>
  <text x="118" y="109" text-anchor="middle" font-family="Segoe UI, system-ui, sans-serif" font-size="11" fill="#047857" font-weight="600">Fila operacional</text>
  <rect x="48" y="136" width="864" height="300" rx="8" fill="#ecfdf5" stroke="#a7f3d0"/>
  <rect x="64" y="152" width="832" height="32" rx="4" fill="#059669" opacity="0.15"/>
  <rect x="64" y="196" width="832" height="28" rx="2" fill="#fff" stroke="#d1fae5"/>
  <rect x="64" y="232" width="832" height="28" rx="2" fill="#ecfdf5" stroke="#d1fae5"/>
  <rect x="64" y="268" width="832" height="28" rx="2" fill="#fff" stroke="#d1fae5"/>
  <text x="480" y="420" text-anchor="middle" font-family="Segoe UI, system-ui, sans-serif" font-size="22" fill="#334155" font-weight="700">Faturamento  Esteiras</text>
  <text x="480" y="452" text-anchor="middle" font-family="Segoe UI, system-ui, sans-serif" font-size="14" fill="#64748b">/faturamento</text>
  <text x="480" y="500" text-anchor="middle" font-family="Segoe UI, system-ui, sans-serif" font-size="11" fill="#94a3b8">Substituir por screenshot real em public/assets/treinamento/</text>
</svg>
