<?xml version="1.0" encoding="UTF-8"?>
<svg xmlns="http://www.w3.org/2000/svg" width="960" height="540" viewBox="0 0 960 540" role="img">
  <defs>
    <linearGradient id="bg" x1="0%" y1="0%" x2="100%" y2="100%">
      <stop offset="0%" stop-color="#f8fafc"/>
      <stop offset="100%" stop-color="#d1fae5"/>
    </linearGradient>
  </defs>
  <rect width="960" height="540" fill="url(#bg)"/>
  <rect x="24" y="24" width="912" height="492" rx="12" fill="#fff" stroke="#cbd5e1" stroke-width="2"/>
  <rect x="24" y="24" width="912" height="44" rx="12" fill="#059669"/>
  <rect x="24" y="56" width="912" height="12" fill="#059669"/>
  <circle cx="52" cy="46" r="7" fill="#fca5a5"/>
  <circle cx="74" cy="46" r="7" fill="#fde047"/>
  <circle cx="96" cy="46" r="7" fill="#86efac"/>
  <text x="480" y="50" text-anchor="middle" font-family="Segoe UI, system-ui, sans-serif" font-size="13" fill="#ecfdf5" font-weight="600">RG Ambiental · Captura de treinamento</text>
  <text x="480" y="110" text-anchor="middle" font-family="Segoe UI, system-ui, sans-serif" font-size="20" fill="#334155" font-weight="700">Resumo financeiro MTR</text>
  <rect x="48" y="140" width="864" height="200" rx="8" fill="#ecfdf5" stroke="#a7f3d0"/>
  <rect x="64" y="156" width="832" height="28" rx="4" fill="#059669" opacity="0.15"/>
  <rect x="64" y="196" width="832" height="24" rx="2" fill="#fff"/>
  <rect x="64" y="228" width="832" height="24" rx="2" fill="#f0fdf4"/>
  <rect x="64" y="260" width="832" height="24" rx="2" fill="#fff"/>
  <rect x="48" y="360" width="420" height="80" rx="8" fill="#f8fafc" stroke="#e2e8f0"/>
  <text x="64" y="388" font-family="Segoe UI, system-ui, sans-serif" font-size="12" fill="#64748b">Total referęncia (contrato)</text>
  <rect x="492" y="360" width="420" height="80" rx="8" fill="#059669" opacity="0.1" stroke="#059669"/>
  <text x="508" y="388" font-family="Segoe UI, system-ui, sans-serif" font-size="12" fill="#047857" font-weight="600">Total a faturar</text>
  <text x="480" y="500" text-anchor="middle" font-family="Segoe UI, system-ui, sans-serif" font-size="11" fill="#94a3b8">Substituir por screenshot real em public/assets/treinamento/</text>
</svg>
