<?xml version="1.0" encoding="UTF-8"?>
<svg xmlns="http://www.w3.org/2000/svg" width="960" height="540" viewBox="0 0 960 540" role="img">
  <defs>
    <linearGradient id="bg" x1="0%" y1="0%" x2="100%" y2="100%">
      <stop offset="0%" stop-color="#f8fafc"/>
      <stop offset="100%" stop-color="#cffafe"/>
    </linearGradient>
  </defs>
  <rect width="960" height="540" fill="url(#bg)"/>
  <rect x="24" y="24" width="912" height="492" rx="12" fill="#fff" stroke="#cbd5e1" stroke-width="2"/>
  <rect x="24" y="24" width="912" height="44" rx="12" fill="#0891b2"/>
  <rect x="24" y="56" width="912" height="12" fill="#0891b2"/>
  <circle cx="52" cy="46" r="7" fill="#fca5a5"/>
  <circle cx="74" cy="46" r="7" fill="#fde047"/>
  <circle cx="96" cy="46" r="7" fill="#86efac"/>
  <text x="480" y="50" text-anchor="middle" font-family="Segoe UI, system-ui, sans-serif" font-size="13" fill="#ecfeff" font-weight="600">RG Ambiental · Captura de treinamento</text>
  <rect x="80" y="120" width="200" height="140" rx="12" fill="#ecfeff" stroke="#67e8f9"/>
  <rect x="300" y="120" width="200" height="140" rx="12" fill="#ecfeff" stroke="#67e8f9"/>
  <rect x="520" y="120" width="200" height="140" rx="12" fill="#ecfeff" stroke="#67e8f9"/>
  <rect x="740" y="120" width="140" height="140" rx="12" fill="#ecfeff" stroke="#67e8f9"/>
  <text x="180" y="200" text-anchor="middle" font-family="Segoe UI, system-ui, sans-serif" font-size="12" fill="#0e7490" font-weight="600">Contas a receber</text>
  <text x="400" y="200" text-anchor="middle" font-family="Segoe UI, system-ui, sans-serif" font-size="12" fill="#0e7490" font-weight="600">Contas a pagar</text>
  <text x="620" y="200" text-anchor="middle" font-family="Segoe UI, system-ui, sans-serif" font-size="12" fill="#0e7490" font-weight="600">Cobranįa</text>
  <text x="810" y="200" text-anchor="middle" font-family="Segoe UI, system-ui, sans-serif" font-size="12" fill="#0e7490" font-weight="600">Hub</text>
  <text x="480" y="320" text-anchor="middle" font-family="Segoe UI, system-ui, sans-serif" font-size="22" fill="#334155" font-weight="700">Financeiro  Hub</text>
  <text x="480" y="352" text-anchor="middle" font-family="Segoe UI, system-ui, sans-serif" font-size="14" fill="#64748b">/financeiro</text>
  <text x="480" y="500" text-anchor="middle" font-family="Segoe UI, system-ui, sans-serif" font-size="11" fill="#94a3b8">Substituir por screenshot real em public/assets/treinamento/</text>
</svg>
