<?xml version="1.0" encoding="UTF-8"?>
<svg xmlns="http://www.w3.org/2000/svg" width="960" height="540" viewBox="0 0 960 540" role="img">
  <defs>
    <linearGradient id="bg" x1="0%" y1="0%" x2="100%" y2="100%">
      <stop offset="0%" stop-color="#f8fafc"/>
      <stop offset="100%" stop-color="#ccfbf1"/>
    </linearGradient>
  </defs>
  <rect width="960" height="540" fill="url(#bg)"/>
  <rect x="24" y="24" width="912" height="492" rx="12" fill="#fff" stroke="#cbd5e1" stroke-width="2"/>
  <rect x="24" y="24" width="912" height="44" rx="12" fill="#0f766e"/>
  <rect x="24" y="56" width="912" height="12" fill="#0f766e"/>
  <circle cx="52" cy="46" r="7" fill="#fca5a5"/>
  <circle cx="74" cy="46" r="7" fill="#fde047"/>
  <circle cx="96" cy="46" r="7" fill="#86efac"/>
  <text x="480" y="50" text-anchor="middle" font-family="Segoe UI, system-ui, sans-serif" font-size="13" fill="#ecfdf5" font-weight="600">RG Ambiental À Captura de treinamento</text>
  <text x="480" y="130" text-anchor="middle" font-family="Segoe UI, system-ui, sans-serif" font-size="22" fill="#334155" font-weight="700">Fluxo operacional completo</text>
  <text x="480" y="160" text-anchor="middle" font-family="Segoe UI, system-ui, sans-serif" font-size="14" fill="#64748b">ProgramaþÒo Æ MTR Æ Pesagem Æ Faturamento Æ Financeiro</text>
  <rect x="80" y="200" width="140" height="100" rx="10" fill="#dbeafe" stroke="#2563eb"/>
  <rect x="250" y="200" width="140" height="100" rx="10" fill="#ede9fe" stroke="#7c3aed"/>
  <rect x="420" y="200" width="140" height="100" rx="10" fill="#ffedd5" stroke="#d97706"/>
  <rect x="590" y="200" width="140" height="100" rx="10" fill="#d1fae5" stroke="#059669"/>
  <rect x="760" y="200" width="120" height="100" rx="10" fill="#cffafe" stroke="#0891b2"/>
  <text x="150" y="255" text-anchor="middle" font-family="Segoe UI, system-ui, sans-serif" font-size="12" fill="#1e40af" font-weight="600">1 À ProgramaþÒo</text>
  <text x="320" y="255" text-anchor="middle" font-family="Segoe UI, system-ui, sans-serif" font-size="12" fill="#5b21b6" font-weight="600">2 À MTR</text>
  <text x="490" y="255" text-anchor="middle" font-family="Segoe UI, system-ui, sans-serif" font-size="12" fill="#b45309" font-weight="600">3 À Pesagem</text>
  <text x="660" y="255" text-anchor="middle" font-family="Segoe UI, system-ui, sans-serif" font-size="12" fill="#047857" font-weight="600">4 À Faturamento</text>
  <text x="820" y="255" text-anchor="middle" font-family="Segoe UI, system-ui, sans-serif" font-size="12" fill="#0e7490" font-weight="600">5 À Financeiro</text>
  <text x="480" y="380" text-anchor="middle" font-family="Segoe UI, system-ui, sans-serif" font-size="13" fill="#475569">Cada etapa alimenta a seguinte  erros cedo propagam atÚ a cobranþa</text>
  <text x="480" y="500" text-anchor="middle" font-family="Segoe UI, system-ui, sans-serif" font-size="11" fill="#94a3b8">Substituir por screenshot real em public/assets/treinamento/</text>
</svg>
