<?xml version="1.0" encoding="UTF-8"?>
<svg xmlns="http://www.w3.org/2000/svg" width="960" height="540" viewBox="0 0 960 540" role="img">
  <defs>
    <linearGradient id="bg" x1="0%" y1="0%" x2="100%" y2="100%">
      <stop offset="0%" stop-color="#f8fafc"/>
      <stop offset="100%" stop-color="#ede9fe"/>
    </linearGradient>
  </defs>
  <rect width="960" height="540" fill="url(#bg)"/>
  <rect x="24" y="24" width="912" height="492" rx="12" fill="#fff" stroke="#cbd5e1" stroke-width="2"/>
  <rect x="24" y="24" width="912" height="44" rx="12" fill="#7c3aed"/>
  <rect x="24" y="56" width="912" height="12" fill="#7c3aed"/>
  <circle cx="52" cy="46" r="7" fill="#fca5a5"/>
  <circle cx="74" cy="46" r="7" fill="#fde047"/>
  <circle cx="96" cy="46" r="7" fill="#86efac"/>
  <text x="480" y="50" text-anchor="middle" font-family="Segoe UI, system-ui, sans-serif" font-size="13" fill="#f5f3ff" font-weight="600">RG Ambiental À Captura de treinamento</text>
  <text x="480" y="110" text-anchor="middle" font-family="Segoe UI, system-ui, sans-serif" font-size="20" fill="#334155" font-weight="700">MTR  Manifesto de Transporte</text>
  <rect x="48" y="140" width="260" height="120" rx="8" fill="#f5f3ff" stroke="#c4b5fd"/>
  <text x="64" y="168" font-family="Segoe UI, system-ui, sans-serif" font-size="13" fill="#5b21b6" font-weight="600">Gerador</text>
  <rect x="330" y="140" width="260" height="120" rx="8" fill="#f5f3ff" stroke="#c4b5fd"/>
  <text x="346" y="168" font-family="Segoe UI, system-ui, sans-serif" font-size="13" fill="#5b21b6" font-weight="600">Transportador</text>
  <rect x="612" y="140" width="260" height="120" rx="8" fill="#f5f3ff" stroke="#c4b5fd"/>
  <text x="628" y="168" font-family="Segoe UI, system-ui, sans-serif" font-size="13" fill="#5b21b6" font-weight="600">Destinador</text>
  <rect x="48" y="280" width="864" height="140" rx="8" fill="#faf5ff" stroke="#ddd6fe"/>
  <text x="64" y="308" font-family="Segoe UI, system-ui, sans-serif" font-size="13" fill="#5b21b6" font-weight="600">ResÝduos / itens</text>
  <rect x="64" y="328" width="832" height="24" rx="4" fill="#ede9fe"/>
  <rect x="64" y="360" width="832" height="24" rx="4" fill="#ede9fe"/>
  <rect x="64" y="392" width="832" height="24" rx="4" fill="#ede9fe"/>
  <text x="480" y="460" text-anchor="middle" font-family="Segoe UI, system-ui, sans-serif" font-size="14" fill="#64748b">/mtr</text>
  <text x="480" y="500" text-anchor="middle" font-family="Segoe UI, system-ui, sans-serif" font-size="11" fill="#94a3b8">Substituir por screenshot real em public/assets/treinamento/</text>
</svg>
