<?xml version="1.0" encoding="UTF-8"?>
<svg xmlns="http://www.w3.org/2000/svg" width="960" height="540" viewBox="0 0 960 540" role="img">
  <defs>
    <linearGradient id="bg" x1="0%" y1="0%" x2="100%" y2="100%">
      <stop offset="0%" stop-color="#f8fafc"/>
      <stop offset="100%" stop-color="#ede9fe"/>
    </linearGradient>
  </defs>
  <rect width="960" height="540" fill="url(#bg)"/>
  <rect x="24" y="24" width="912" height="492" rx="12" fill="#fff" stroke="#cbd5e1" stroke-width="2"/>
  <rect x="24" y="24" width="912" height="44" rx="12" fill="#7c3aed"/>
  <rect x="24" y="56" width="912" height="12" fill="#7c3aed"/>
  <circle cx="52" cy="46" r="7" fill="#fca5a5"/>
  <circle cx="74" cy="46" r="7" fill="#fde047"/>
  <circle cx="96" cy="46" r="7" fill="#86efac"/>
  <text x="480" y="50" text-anchor="middle" font-family="Segoe UI, system-ui, sans-serif" font-size="13" fill="#f5f3ff" font-weight="600">RG Ambiental ∑ Captura de treinamento</text>
  <rect x="48" y="88" width="320" height="28" rx="6" fill="#f1f5f9"/>
  <rect x="48" y="128" width="864" height="340" rx="8" fill="#faf5ff" stroke="#ddd6fe"/>
  <rect x="64" y="144" width="832" height="32" rx="4" fill="#7c3aed" opacity="0.15"/>
  <rect x="64" y="188" width="832" height="28" rx="2" fill="#fff" stroke="#e2e8f0"/>
  <rect x="64" y="224" width="832" height="28" rx="2" fill="#f8fafc" stroke="#e2e8f0"/>
  <rect x="64" y="260" width="832" height="28" rx="2" fill="#fff" stroke="#e2e8f0"/>
  <rect x="64" y="296" width="832" height="28" rx="2" fill="#f8fafc" stroke="#e2e8f0"/>
  <rect x="64" y="332" width="832" height="28" rx="2" fill="#fff" stroke="#e2e8f0"/>
  <text x="480" y="420" text-anchor="middle" font-family="Segoe UI, system-ui, sans-serif" font-size="22" fill="#334155" font-weight="700">MTR Gerenciador  Fila</text>
  <text x="480" y="452" text-anchor="middle" font-family="Segoe UI, system-ui, sans-serif" font-size="14" fill="#64748b">Vis„o tabular para ediÁ„o em lote</text>
  <text x="480" y="500" text-anchor="middle" font-family="Segoe UI, system-ui, sans-serif" font-size="11" fill="#94a3b8">Substituir por screenshot real em public/assets/treinamento/</text>
</svg>
