<?xml version="1.0" encoding="UTF-8"?>
<svg xmlns="http://www.w3.org/2000/svg" width="960" height="540" viewBox="0 0 960 540" role="img">
  <defs>
    <linearGradient id="bg" x1="0%" y1="0%" x2="100%" y2="100%">
      <stop offset="0%" stop-color="#f8fafc"/>
      <stop offset="100%" stop-color="#dbeafe"/>
    </linearGradient>
  </defs>
  <rect width="960" height="540" fill="url(#bg)"/>
  <rect x="24" y="24" width="912" height="492" rx="12" fill="#fff" stroke="#cbd5e1" stroke-width="2"/>
  <rect x="24" y="24" width="912" height="44" rx="12" fill="#2563eb"/>
  <rect x="24" y="56" width="912" height="12" fill="#2563eb"/>
  <circle cx="52" cy="46" r="7" fill="#fca5a5"/>
  <circle cx="74" cy="46" r="7" fill="#fde047"/>
  <circle cx="96" cy="46" r="7" fill="#86efac"/>
  <text x="480" y="50" text-anchor="middle" font-family="Segoe UI, system-ui, sans-serif" font-size="13" fill="#eff6ff" font-weight="600">RG Ambiental Ě Captura de treinamento</text>
  <rect x="48" y="88" width="200" height="32" rx="6" fill="#f1f5f9"/>
  <rect x="48" y="136" width="864" height="320" rx="8" fill="#f8fafc" stroke="#e2e8f0"/>
  <rect x="64" y="152" width="120" height="28" rx="4" fill="#e2e8f0"/>
  <rect x="200" y="152" width="120" height="28" rx="4" fill="#e2e8f0"/>
  <rect x="336" y="152" width="120" height="28" rx="4" fill="#e2e8f0"/>
  <rect x="472" y="152" width="120" height="28" rx="4" fill="#e2e8f0"/>
  <rect x="608" y="152" width="120" height="28" rx="4" fill="#e2e8f0"/>
  <rect x="744" y="152" width="120" height="28" rx="4" fill="#e2e8f0"/>
  <rect x="120" y="220" width="180" height="48" rx="6" fill="#2563eb" opacity="0.85"/>
  <rect x="380" y="260" width="160" height="48" rx="6" fill="#3b82f6" opacity="0.7"/>
  <rect x="620" y="300" width="140" height="48" rx="6" fill="#60a5fa" opacity="0.6"/>
  <text x="480" y="420" text-anchor="middle" font-family="Segoe UI, system-ui, sans-serif" font-size="22" fill="#334155" font-weight="700">Programaš§es  Calendßrio</text>
  <text x="480" y="452" text-anchor="middle" font-family="Segoe UI, system-ui, sans-serif" font-size="14" fill="#64748b">/programacao</text>
  <text x="480" y="500" text-anchor="middle" font-family="Segoe UI, system-ui, sans-serif" font-size="11" fill="#94a3b8">Substituir por screenshot real em public/assets/treinamento/</text>
</svg>
