<?xml version="1.0" encoding="UTF-8"?>
<svg xmlns="http://www.w3.org/2000/svg" width="960" height="540" viewBox="0 0 960 540" role="img">
  <defs>
    <linearGradient id="bg" x1="0%" y1="0%" x2="100%" y2="100%">
      <stop offset="0%" stop-color="#f8fafc"/>
      <stop offset="100%" stop-color="#dbeafe"/>
    </linearGradient>
  </defs>
  <rect width="960" height="540" fill="url(#bg)"/>
  <rect x="24" y="24" width="912" height="492" rx="12" fill="#fff" stroke="#cbd5e1" stroke-width="2"/>
  <rect x="24" y="24" width="912" height="44" rx="12" fill="#2563eb"/>
  <rect x="24" y="56" width="912" height="12" fill="#2563eb"/>
  <circle cx="52" cy="46" r="7" fill="#fca5a5"/>
  <circle cx="74" cy="46" r="7" fill="#fde047"/>
  <circle cx="96" cy="46" r="7" fill="#86efac"/>
  <text x="480" y="50" text-anchor="middle" font-family="Segoe UI, system-ui, sans-serif" font-size="13" fill="#eff6ff" font-weight="600">RG Ambiental À Captura de treinamento</text>
  <text x="480" y="110" text-anchor="middle" font-family="Segoe UI, system-ui, sans-serif" font-size="20" fill="#334155" font-weight="700">Nova programaþÒo</text>
  <rect x="80" y="140" width="380" height="36" rx="6" fill="#f1f5f9" stroke="#cbd5e1"/>
  <text x="96" y="163" font-family="Segoe UI, system-ui, sans-serif" font-size="12" fill="#64748b">Cliente</text>
  <rect x="480" y="140" width="380" height="36" rx="6" fill="#f1f5f9" stroke="#cbd5e1"/>
  <text x="496" y="163" font-family="Segoe UI, system-ui, sans-serif" font-size="12" fill="#64748b">Data programada</text>
  <rect x="80" y="196" width="380" height="36" rx="6" fill="#f1f5f9" stroke="#cbd5e1"/>
  <text x="96" y="219" font-family="Segoe UI, system-ui, sans-serif" font-size="12" fill="#64748b">Tipo de caminhÒo / VeÝculo</text>
  <rect x="480" y="196" width="380" height="36" rx="6" fill="#f1f5f9" stroke="#cbd5e1"/>
  <text x="496" y="219" font-family="Segoe UI, system-ui, sans-serif" font-size="12" fill="#64748b">Tipo de serviþo</text>
  <rect x="80" y="252" width="780" height="80" rx="6" fill="#f1f5f9" stroke="#cbd5e1"/>
  <text x="96" y="275" font-family="Segoe UI, system-ui, sans-serif" font-size="12" fill="#64748b">ResÝduos / Equipamentos</text>
  <rect x="80" y="352" width="780" height="60" rx="6" fill="#f1f5f9" stroke="#cbd5e1"/>
  <text x="96" y="375" font-family="Segoe UI, system-ui, sans-serif" font-size="12" fill="#64748b">Observaþ§es</text>
  <rect x="720" y="430" width="140" height="40" rx="8" fill="#2563eb"/>
  <text x="790" y="455" text-anchor="middle" font-family="Segoe UI, system-ui, sans-serif" font-size="13" fill="#fff" font-weight="600">Criar programaþÒo</text>
  <text x="480" y="500" text-anchor="middle" font-family="Segoe UI, system-ui, sans-serif" font-size="11" fill="#94a3b8">Substituir por screenshot real em public/assets/treinamento/</text>
</svg>
